<svg width="100" height="100" viewBox="0 0 100 100" fill="none" xmlns="http://www.w3.org/2000/svg">
<path fill-rule="evenodd" clip-rule="evenodd" d="M50.0812 12.5C40.6708 12.5 32.0979 15.6083 27.025 18.1479C26.5667 18.3771 26.1389 18.6007 25.7417 18.8187C24.9542 19.2479 24.2833 19.6479 23.75 20L29.5208 28.4958L32.2375 29.5771C42.8542 34.9333 57.0917 34.9333 67.7104 29.5771L70.7937 27.9771L76.25 20C75.1185 19.2648 73.9434 18.599 72.7312 18.0062C67.6833 15.4937 59.3146 12.5 50.0833 12.5M36.6625 22.1167C34.6194 21.7322 32.6012 21.2257 30.6187 20.6C35.3708 18.4896 42.4521 16.25 50.0833 16.25C55.3687 16.25 60.3667 17.325 64.5 18.6875C59.6562 19.3688 54.4875 20.525 49.5625 21.9479C45.6875 23.0687 41.1583 22.9479 36.6625 22.1167ZM69.9125 32.6667L69.4 32.925C57.7208 38.8167 42.2292 38.8167 30.55 32.925L30.0646 32.6792C12.5166 51.9312 -0.879185 87.4938 50.0812 87.4938C101.042 87.4938 87.3208 51.2708 69.9125 32.6667ZM47.9167 50C46.8116 50 45.7518 50.439 44.9704 51.2204C44.189 52.0018 43.75 53.0616 43.75 54.1667C43.75 55.2717 44.189 56.3315 44.9704 57.1129C45.7518 57.8943 46.8116 58.3333 47.9167 58.3333V50ZM52.0833 45.8333V43.75H47.9167V45.8333C45.7065 45.8333 43.5869 46.7113 42.0241 48.2741C40.4613 49.8369 39.5833 51.9565 39.5833 54.1667C39.5833 56.3768 40.4613 58.4964 42.0241 60.0592C43.5869 61.622 45.7065 62.5 47.9167 62.5V70.8333C46.1042 70.8333 44.5604 69.6771 43.9854 68.0562C43.9001 67.7911 43.7625 67.5457 43.5807 67.3346C43.3989 67.1236 43.1766 66.9511 42.927 66.8275C42.6774 66.7038 42.4055 66.6315 42.1274 66.6147C41.8494 66.598 41.5708 66.6371 41.3081 66.7299C41.0455 66.8227 40.8041 66.9673 40.5983 67.155C40.3925 67.3427 40.2264 67.5698 40.1099 67.8228C39.9933 68.0758 39.9287 68.3496 39.9199 68.628C39.911 68.9065 39.9581 69.1838 40.0583 69.4437C40.6327 71.0689 41.6969 72.4759 43.1043 73.471C44.5117 74.4661 46.193 75.0003 47.9167 75V77.0833H52.0833V75C54.2935 75 56.4131 74.122 57.9759 72.5592C59.5387 70.9964 60.4167 68.8768 60.4167 66.6667C60.4167 64.4565 59.5387 62.3369 57.9759 60.7741C56.4131 59.2113 54.2935 58.3333 52.0833 58.3333V50C53.8958 50 55.4396 51.1562 56.0146 52.7771C56.0999 53.0423 56.2375 53.2876 56.4193 53.4987C56.6011 53.7098 56.8234 53.8822 57.073 54.0059C57.3226 54.1295 57.5945 54.2019 57.8725 54.2186C58.1506 54.2354 58.4292 54.1962 58.6918 54.1034C58.9545 54.0106 59.1959 53.8661 59.4017 53.6784C59.6075 53.4906 59.7736 53.2636 59.8901 53.0105C60.0066 52.7575 60.0712 52.4837 60.0801 52.2053C60.0889 51.9269 60.0419 51.6495 59.9417 51.3896C59.3672 49.7645 58.3031 48.3574 56.8957 47.3624C55.4883 46.3673 53.807 45.8331 52.0833 45.8333ZM52.0833 62.5V70.8333C53.1884 70.8333 54.2482 70.3943 55.0296 69.6129C55.811 68.8315 56.25 67.7717 56.25 66.6667C56.25 65.5616 55.811 64.5018 55.0296 63.7204C54.2482 62.939 53.1884 62.5 52.0833 62.5Z" fill="#0000AD"/>
</svg>
