<svg width="100" height="100" viewBox="0 0 100 100" fill="none" xmlns="http://www.w3.org/2000/svg">
<path d="M37.5 57.2916C27.75 57.2916 8.33334 62.1666 8.33334 71.8749V79.1666H66.6667V71.8749C66.6667 62.1666 47.25 57.2916 37.5 57.2916ZM18.0833 70.8333C21.5833 68.4166 30.0417 65.6249 37.5 65.6249C44.9583 65.6249 53.4167 68.4166 56.9167 70.8333H18.0833ZM37.5 49.9999C45.5417 49.9999 52.0833 43.4583 52.0833 35.4166C52.0833 27.3749 45.5417 20.8333 37.5 20.8333C29.4583 20.8333 22.9167 27.3749 22.9167 35.4166C22.9167 43.4583 29.4583 49.9999 37.5 49.9999ZM37.5 29.1666C40.9583 29.1666 43.75 31.9583 43.75 35.4166C43.75 38.8749 40.9583 41.6666 37.5 41.6666C34.0417 41.6666 31.25 38.8749 31.25 35.4166C31.25 31.9583 34.0417 29.1666 37.5 29.1666ZM66.8334 57.5416C71.6667 61.0416 75 65.7083 75 71.8749V79.1666H91.6667V71.8749C91.6667 63.4583 77.0834 58.6666 66.8334 57.5416ZM62.5 49.9999C70.5417 49.9999 77.0834 43.4583 77.0834 35.4166C77.0834 27.3749 70.5417 20.8333 62.5 20.8333C60.25 20.8333 58.1667 21.3749 56.25 22.2916C58.875 25.9999 60.4167 30.5416 60.4167 35.4166C60.4167 40.2916 58.875 44.8333 56.25 48.5416C58.1667 49.4583 60.25 49.9999 62.5 49.9999Z" fill="#0000AD"/>
</svg>
