<svg width="81" height="81" viewBox="0 0 81 81" fill="none" xmlns="http://www.w3.org/2000/svg">
<path d="M54 38.8125C54 36.5747 54.8889 34.4286 56.4713 32.8463C58.0536 31.2639 60.1997 30.375 62.4375 30.375C64.6753 30.375 66.8214 31.2639 68.4037 32.8463C69.9861 34.4286 70.875 36.5747 70.875 38.8125C70.875 41.0503 69.9861 43.1964 68.4037 44.7787C66.8214 46.361 64.6753 47.25 62.4375 47.25C60.1997 47.25 58.0536 46.361 56.4713 44.7787C54.8889 43.1964 54 41.0503 54 38.8125ZM43.875 10.125V67.5H81V10.125H43.875ZM74.25 54C70.5375 54 67.5 57.0375 67.5 60.75H57.375C57.375 58.9598 56.6638 57.2429 55.398 55.977C54.1321 54.7112 52.4152 54 50.625 54V23.625C54.3713 23.625 57.375 20.6212 57.375 16.875H67.5C67.5 18.6652 68.2112 20.3821 69.477 21.648C70.7429 22.9138 72.4598 23.625 74.25 23.625V54ZM23.625 20.25C27.3375 20.25 30.375 23.2875 30.375 27C30.375 30.7125 27.3375 33.75 23.625 33.75C19.9125 33.75 16.875 30.7125 16.875 27C16.875 23.2875 19.9125 20.25 23.625 20.25ZM23.625 13.5C16.1663 13.5 10.125 19.5412 10.125 27C10.125 34.4587 16.1663 40.5 23.625 40.5C31.0837 40.5 37.125 34.4587 37.125 27C37.125 19.5412 31.0837 13.5 23.625 13.5ZM23.625 47.25C10.5638 47.25 0 53.2912 0 60.75V67.5H37.125V60.75H6.75C6.75 58.7925 12.6562 54 23.625 54C29.8013 54 34.3237 55.5187 37.125 57.2062V49.68C33.3112 48.1612 28.6875 47.25 23.625 47.25Z" fill="#0000AD"/>
</svg>
