<svg width="81" height="81" viewBox="0 0 81 81" fill="none" xmlns="http://www.w3.org/2000/svg">
<path d="M11.8125 12.6562C11.8125 12.4325 11.9014 12.2179 12.0596 12.0596C12.2179 11.9014 12.4325 11.8125 12.6562 11.8125H58.2188C58.4425 11.8125 58.6571 11.9014 58.8154 12.0596C58.9736 12.2179 59.0625 12.4325 59.0625 12.6562V46.4062C59.0625 47.0776 59.3292 47.7214 59.8039 48.1961C60.2786 48.6708 60.9224 48.9375 61.5938 48.9375C62.2651 48.9375 62.9089 48.6708 63.3836 48.1961C63.8583 47.7214 64.125 47.0776 64.125 46.4062V12.6562C64.125 11.0898 63.5027 9.58754 62.3951 8.4799C61.2875 7.37226 59.7852 6.75 58.2188 6.75H12.6562C11.0898 6.75 9.58754 7.37226 8.4799 8.4799C7.37226 9.58754 6.75 11.0898 6.75 12.6562V68.3438C6.75 71.604 9.396 74.25 12.6562 74.25H36.2812C36.9526 74.25 37.5964 73.9833 38.0711 73.5086C38.5458 73.0339 38.8125 72.3901 38.8125 71.7188C38.8125 71.0474 38.5458 70.4036 38.0711 69.9289C37.5964 69.4542 36.9526 69.1875 36.2812 69.1875H12.6562C12.4325 69.1875 12.2179 69.0986 12.0596 68.9404C11.9014 68.7821 11.8125 68.5675 11.8125 68.3438V12.6562Z" fill="#0000AD"/>
<path d="M21.0938 23.625C20.4224 23.625 19.7786 23.8917 19.3039 24.3664C18.8292 24.8411 18.5625 25.4849 18.5625 26.1562C18.5625 26.8276 18.8292 27.4714 19.3039 27.9461C19.7786 28.4208 20.4224 28.6875 21.0938 28.6875H49.7812C50.4526 28.6875 51.0964 28.4208 51.5711 27.9461C52.0458 27.4714 52.3125 26.8276 52.3125 26.1562C52.3125 25.4849 52.0458 24.8411 51.5711 24.3664C51.0964 23.8917 50.4526 23.625 49.7812 23.625H21.0938ZM18.5625 39.6562C18.5625 38.9849 18.8292 38.3411 19.3039 37.8664C19.7786 37.3917 20.4224 37.125 21.0938 37.125H36.2812C36.9526 37.125 37.5964 37.3917 38.0711 37.8664C38.5458 38.3411 38.8125 38.9849 38.8125 39.6562C38.8125 40.3276 38.5458 40.9714 38.0711 41.4461C37.5964 41.9208 36.9526 42.1875 36.2812 42.1875H21.0938C20.4224 42.1875 19.7786 41.9208 19.3039 41.4461C18.8292 40.9714 18.5625 40.3276 18.5625 39.6562ZM73.5075 54.945C73.7562 54.7133 73.9557 54.4338 74.094 54.1233C74.2324 53.8128 74.3067 53.4776 74.3127 53.1378C74.3187 52.7979 74.2562 52.4603 74.1289 52.1451C74.0016 51.8299 73.8121 51.5436 73.5718 51.3032C73.3314 51.0629 73.0451 50.8734 72.7299 50.7461C72.4147 50.6188 72.0771 50.5563 71.7372 50.5623C71.3974 50.5682 71.0622 50.6426 70.7517 50.781C70.4412 50.9193 70.1617 51.1188 69.93 51.3675L53.1562 68.1413L46.5075 61.4925C46.2758 61.2438 45.9963 61.0443 45.6858 60.906C45.3753 60.7676 45.0401 60.6933 44.7003 60.6873C44.3604 60.6813 44.0228 60.7438 43.7076 60.8711C43.3924 60.9984 43.1061 61.1879 42.8657 61.4282C42.6254 61.6686 42.4359 61.9549 42.3086 62.2701C42.1813 62.5853 42.1188 62.9229 42.1248 63.2628C42.1307 63.6026 42.2051 63.9378 42.3435 64.2483C42.4818 64.5588 42.6813 64.8383 42.93 65.07L51.3675 73.5075C51.8421 73.9815 52.4855 74.2478 53.1562 74.2478C53.827 74.2478 54.4704 73.9815 54.945 73.5075L73.5075 54.945Z" fill="#0000AD"/>
</svg>
