<svg width="104" height="104" viewBox="0 0 104 104" fill="none" xmlns="http://www.w3.org/2000/svg">
<path d="M78.208 52.1018C79.8749 52.1018 81.2262 50.7505 81.2262 49.0836C81.2262 47.4167 79.8749 46.0654 78.208 46.0654C76.5411 46.0654 75.1898 47.4167 75.1898 49.0836C75.1898 50.7505 76.5411 52.1018 78.208 52.1018Z" stroke="#0000AD" stroke-width="3" stroke-linecap="round" stroke-linejoin="round"/>
<path d="M87.1477 61.7197C89.1484 61.7197 90.7704 60.0978 90.7704 58.097C90.7704 56.0963 89.1484 54.4744 87.1477 54.4744C85.1469 54.4744 83.525 56.0963 83.525 58.097C83.525 60.0978 85.1469 61.7197 87.1477 61.7197Z" stroke="#0000AD" stroke-width="3" stroke-linecap="round" stroke-linejoin="round"/>
<path d="M26.4615 22.6741L50.9535 26.9641M33.6852 31.3646L49.5994 34.1856M29.0594 37.5699L48.4705 40.9564M62.725 69.3246L62.1249 61.9492C60.6212 51.9717 49.0989 49.5494 45.5347 59.1846C41.5892 67.3399 27.5232 74.9601 12.129 76.8451C18.3322 96.8781 51.4974 92.9347 56.0322 87.1151" stroke="#0000AD" stroke-width="3" stroke-linecap="round" stroke-linejoin="round"/>
<path d="M20.1435 37.7151V40.9867M20.1435 46.0849V49.3566M22.8042 43.5369L26.0758 43.6496M14.4343 43.6496H17.706M30.4872 60.5409L32.721 62.9351M32.721 54.5436L30.407 56.8576M24.4898 54.7017L26.8038 57.0157M26.8038 60.4607L24.4898 62.7747M45.5347 59.1846C50.5787 63.3879 56.2358 63.4637 62.1248 61.9492M23.7857 89.1257C36.1227 84.9441 43.7602 79.5859 48.0177 73.3481M47.905 83.3927C45.487 86.7381 42.5512 89.5136 37.5787 91.7951M15.3877 83.0049C22.4098 82.8099 27.9023 80.3702 33.2345 77.6359M51.376 53.3346L58.3462 16.1286C59.3168 9.68924 66.898 11.5374 65.4268 17.3701L58.1382 54.7949M58.4025 75.3782C47.6082 81.5056 57.8695 91.7777 64.0445 87.7932C68.5317 93.8101 78.0606 92.6682 80.2945 88.1312C93.0475 93.8209 95.9768 76.0564 85.488 74.4769C83.1567 66.3281 74.724 64.9154 69.6865 69.8489C65.3813 68.7872 60.9592 67.1059 58.4025 75.3782Z" stroke="#0000AD" stroke-width="3" stroke-linecap="round" stroke-linejoin="round"/>
</svg>
