<svg width="52" height="83" viewBox="0 0 52 83" fill="none" xmlns="http://www.w3.org/2000/svg">
<path d="M22.25 26.3125C22.25 22.7321 23.6723 19.2983 26.2041 16.7666C28.7358 14.2348 32.1696 12.8125 35.75 12.8125H39.125V2.6875H2V12.8125C3.79021 12.8125 5.5071 13.5237 6.77297 14.7895C8.03884 16.0554 8.75 17.7723 8.75 19.5625V39.8125C8.75 41.6027 8.03884 43.3196 6.77297 44.5855C5.5071 45.8513 3.79021 46.5625 2 46.5625V80.3125H39.125V56.6875L38.6356 56.3939C27.3125 48.25 22.25 39.8125 22.25 26.3125ZM22.25 26.3125H8.75M32.375 13.2377V17.875C32.375 20.1128 33.2639 22.2589 34.8463 23.8412C36.4286 25.4236 38.5747 26.3125 40.8125 26.3125M49.25 1V14.5" stroke="#0000AD" stroke-width="4"/>
</svg>
