<svg width="81" height="81" viewBox="0 0 81 81" fill="none" xmlns="http://www.w3.org/2000/svg">
<g clip-path="url(#clip0_5_157)">
<rect width="81" height="81" fill="white"/>
<path d="M45.4043 45.5625C43.2158 43.9277 40.856 42.6753 38.3247 41.8052C35.7935 40.9351 33.1436 40.5 30.375 40.5C28.0547 40.5 25.8135 40.8032 23.6514 41.4097C21.4893 42.0161 19.4722 42.8599 17.6001 43.9409C15.728 45.022 14.0273 46.3403 12.498 47.896C10.9688 49.4517 9.65039 51.1655 8.54297 53.0376C7.43555 54.9097 6.57861 56.9268 5.97217 59.0889C5.36572 61.251 5.0625 63.4922 5.0625 65.8125H0C0 62.6484 0.461426 59.603 1.38428 56.6763C2.30713 53.7495 3.63867 51.0469 5.37891 48.5684C7.11914 46.0898 9.17578 43.8882 11.5488 41.9634C13.9219 40.0386 16.6113 38.5225 19.6172 37.415C18.1406 36.4922 16.8223 35.4111 15.6621 34.1719C14.502 32.9326 13.5 31.5615 12.6562 30.0586C11.8125 28.5557 11.1929 26.9868 10.7974 25.3521C10.4019 23.7173 10.1777 22.0166 10.125 20.25C10.125 17.4551 10.6523 14.8315 11.707 12.3794C12.7617 9.92725 14.2119 7.7915 16.0576 5.97217C17.9033 4.15283 20.0522 2.70264 22.5044 1.62158C24.9565 0.540527 27.5801 0 30.375 0C33.1699 0 35.7935 0.527344 38.2456 1.58203C40.6978 2.63672 42.8335 4.08691 44.6528 5.93262C46.4722 7.77832 47.9224 9.92725 49.0034 12.3794C50.0845 14.8315 50.625 17.4551 50.625 20.25C50.625 21.9902 50.4141 23.6909 49.9922 25.3521C49.5703 27.0132 48.9375 28.582 48.0938 30.0586C47.25 31.5352 46.248 32.8931 45.0879 34.1323C43.9277 35.3716 42.5962 36.4658 41.0933 37.415C42.6753 38.0215 44.165 38.7334 45.5625 39.5508V45.5625H45.4043ZM15.1875 20.25C15.1875 22.3594 15.583 24.3237 16.374 26.1431C17.165 27.9624 18.2461 29.5708 19.6172 30.9683C20.9883 32.3657 22.5967 33.46 24.4424 34.251C26.2881 35.042 28.2656 35.4375 30.375 35.4375C32.458 35.4375 34.4224 35.042 36.2681 34.251C38.1138 33.46 39.7222 32.3789 41.0933 31.0078C42.4644 29.6367 43.5586 28.0283 44.376 26.1826C45.1934 24.3369 45.5889 22.3594 45.5625 20.25C45.5625 18.167 45.167 16.2026 44.376 14.3569C43.585 12.5112 42.5039 10.9028 41.1328 9.53174C39.7617 8.16064 38.1401 7.06641 36.2681 6.24902C34.396 5.43164 32.4316 5.03613 30.375 5.0625C28.2656 5.0625 26.3013 5.45801 24.4819 6.24902C22.6626 7.04004 21.0542 8.12109 19.6567 9.49219C18.2593 10.8633 17.165 12.4849 16.374 14.3569C15.583 16.229 15.1875 18.1934 15.1875 20.25ZM81 50.625V81H40.5V50.625H50.625V40.5H70.875V50.625H81ZM55.6875 50.625H65.8125V45.5625H55.6875V50.625ZM75.9375 65.8125H70.875V70.875H65.8125V65.8125H55.6875V70.875H50.625V65.8125H45.5625V75.9375H75.9375V65.8125ZM75.9375 55.6875H45.5625V60.75H75.9375V55.6875Z" fill="#0000AD"/>
</g>
<defs>
<clipPath id="clip0_5_157">
<rect width="81" height="81" fill="white"/>
</clipPath>
</defs>
</svg>
